<svg id="Calque_1" data-name="Calque 1" xmlns="http://www.w3.org/2000/svg" width="100" height="100" viewBox="0 0 100 100"><title>Plan de travail 1</title><path d="M88.37,56.8a16.9,16.9,0,0,0,.79-1.95c2.63-7.77-1.35-17.07-9.73-19.32C78.52,24.15,70.52,16.34,61.49,15c-10.34-1.52-19.82,5.05-23,15.49a12.54,12.54,0,0,0-11,.86,13.63,13.63,0,0,0-4.33,3.23,15.24,15.24,0,0,0-3.65,7.5,11.29,11.29,0,0,0-2.18.48,10.63,10.63,0,0,0-7.28,8.92A13.19,13.19,0,0,0,11,58.2a10.37,10.37,0,0,0,11,6.31,1.1,1.1,0,0,1,.75.23,21.53,21.53,0,0,0,8.89,17c8.32,5.77,19,4,25.78-3.93A11.86,11.86,0,0,0,67.8,81.71a12.85,12.85,0,0,0,9.43-6.35,22.61,22.61,0,0,0,3.08.81c4,.44,7.32-1.17,9.73-4.8A10.66,10.66,0,0,0,91.84,65,11.1,11.1,0,0,0,88.37,56.8Z" fill="#c7ede6"/><path d="M40.22,69.89H50.59a4.31,4.31,0,0,0,.89-8.53,5.27,5.27,0,0,0,0-.56,4.47,4.47,0,0,0-8-2.69,4.92,4.92,0,0,0-9.74-.55,4.77,4.77,0,0,0,0,1.92,3.08,3.08,0,0,0-5.33,1.89,4.05,4.05,0,0,0-2.39.16,4.39,4.39,0,0,0-2.85,3.87,4.31,4.31,0,0,0,4.31,4.48h9.94" fill="#fdfcef"/><path d="M50.59,70.39H40.22a.5.5,0,0,1-.5-.5.5.5,0,0,1,.5-.5H50.59a3.81,3.81,0,0,0,.79-7.54.51.51,0,0,1-.4-.56,3.89,3.89,0,0,0,0-.49,4,4,0,0,0-4-4,3.92,3.92,0,0,0-3.16,1.58.52.52,0,0,1-.54.18.49.49,0,0,1-.35-.45,4.48,4.48,0,0,0-1.61-3.08,4.42,4.42,0,0,0-7.15,2.58,4.57,4.57,0,0,0,0,1.73.5.5,0,0,1-.86.44A2.54,2.54,0,0,0,31.51,59a2.57,2.57,0,0,0-2.57,2.41.53.53,0,0,1-.2.37.51.51,0,0,1-.41.09,3.61,3.61,0,0,0-2.11.14,3.87,3.87,0,0,0-2.52,3.42,3.81,3.81,0,0,0,3.8,4h9.94a.5.5,0,0,1,.5.5.5.5,0,0,1-.5.5H27.5a4.82,4.82,0,0,1-4.8-5,4.87,4.87,0,0,1,3.17-4.31A4.5,4.5,0,0,1,28,60.79a3.56,3.56,0,0,1,5.14-2.39,5.88,5.88,0,0,1,.1-.93A5.43,5.43,0,0,1,42,54.29a5.52,5.52,0,0,1,1.79,2.76,4.89,4.89,0,0,1,3.24-1.21,5,5,0,0,1,5,5A1.09,1.09,0,0,1,52,61a4.81,4.81,0,0,1-1.42,9.41Z" fill="#472b29"/><path d="M52.34,61.86A2.87,2.87,0,0,0,48.47,63a2.3,2.3,0,0,0-.18.5" fill="#fdfcef"/><path d="M48.29,63.73h-.06a.25.25,0,0,1-.18-.3,2.64,2.64,0,0,1,.19-.56,3.14,3.14,0,0,1,4.2-1.24.25.25,0,0,1,.12.34.25.25,0,0,1-.33.12,2.63,2.63,0,0,0-3.54,1,2.18,2.18,0,0,0-.16.45A.24.24,0,0,1,48.29,63.73Z" fill="#472b29"/><path d="M18,48.83H8a.5.5,0,0,1-.5-.5.5.5,0,0,1,.5-.5H18a.5.5,0,0,1,.5.5A.5.5,0,0,1,18,48.83Zm2.88,0H19.47a.5.5,0,0,1-.5-.5.5.5,0,0,1,.5-.5h1.44a.5.5,0,0,1,.5.5A.5.5,0,0,1,20.91,48.83Zm4.06,0H22.42a.5.5,0,0,1-.5-.5.51.51,0,0,1,.5-.5H25a.51.51,0,0,1,.5.5A.5.5,0,0,1,25,48.83Zm0,1.87H15.35a.5.5,0,1,1,0-1H25a.5.5,0,0,1,0,1Zm-11.35,0H13a.5.5,0,0,1,0-1h.58a.5.5,0,0,1,0,1Zm-2.38,0H9.79a.5.5,0,0,1,0-1h1.45a.5.5,0,1,1,0,1ZM20.38,47h-5a.5.5,0,0,1,0-1h5a.5.5,0,0,1,0,1Zm0-1.87H19.12a.5.5,0,0,1-.5-.5.5.5,0,0,1,.5-.5h1.26a.51.51,0,0,1,.5.5A.5.5,0,0,1,20.38,45.1Zm-3.27,7.46H15.35a.5.5,0,0,1-.5-.5.5.5,0,0,1,.5-.5h1.76a.5.5,0,0,1,.5.5A.5.5,0,0,1,17.11,52.56Zm54.1-30h-10a.5.5,0,0,1-.5-.5.5.5,0,0,1,.5-.5h10a.5.5,0,0,1,.5.5A.5.5,0,0,1,71.21,22.56Zm2.88,0H72.64a.51.51,0,0,1-.5-.5.5.5,0,0,1,.5-.5h1.45a.5.5,0,0,1,.5.5A.5.5,0,0,1,74.09,22.56Zm4,0H75.6a.5.5,0,0,1-.5-.5.5.5,0,0,1,.5-.5h2.54a.5.5,0,0,1,.5.5A.5.5,0,0,1,78.14,22.56Zm-2-3.73H66.5a.51.51,0,0,1-.5-.5.5.5,0,0,1,.5-.5h9.62a.5.5,0,0,1,.5.5A.51.51,0,0,1,76.12,18.83Zm-11.35,0h-.58a.51.51,0,0,1-.5-.5.5.5,0,0,1,.5-.5h.58a.5.5,0,0,1,.5.5A.5.5,0,0,1,64.77,18.83Zm-2.38,0H60.94a.5.5,0,0,1-.5-.5.5.5,0,0,1,.5-.5h1.45a.5.5,0,0,1,.5.5A.5.5,0,0,1,62.39,18.83Zm11.17,1.86h-5a.5.5,0,0,1-.5-.5.5.5,0,0,1,.5-.5h5a.51.51,0,0,1,.5.5A.5.5,0,0,1,73.56,20.69Z" fill="#fff"/><path d="M73.56,18.83H72.3a.5.5,0,0,1-.5-.5.5.5,0,0,1,.5-.5h1.26a.5.5,0,0,1,.5.5A.51.51,0,0,1,73.56,18.83Zm-6.49,1.86H65.31a.5.5,0,0,1-.5-.5.51.51,0,0,1,.5-.5h1.76a.5.5,0,0,1,.5.5A.5.5,0,0,1,67.07,20.69Z" fill="#fff"/><path d="M66.85,53.42h3.54a3.73,3.73,0,0,0,.78-7.4,3.8,3.8,0,0,0-3.92-4.35,4,4,0,0,0-3.15,1.54,4.38,4.38,0,0,0-8.64-.48,4.21,4.21,0,0,0,0,1.66,2.77,2.77,0,0,0-2-.85A2.7,2.7,0,0,0,50.75,46a3.75,3.75,0,1,0-.83,7.39h8.81m1.64,0h.36" fill="#fdfcef"/><path d="M70.39,53.92H66.85a.5.5,0,0,1-.5-.5.5.5,0,0,1,.5-.5h3.54a3.23,3.23,0,0,0,.68-6.41.49.49,0,0,1-.39-.55c0-.14,0-.28,0-.42a3.42,3.42,0,0,0-3.46-3.37,3.47,3.47,0,0,0-2.76,1.34.51.51,0,0,1-.54.18.49.49,0,0,1-.35-.44,3.73,3.73,0,0,0-1.37-2.6,4,4,0,0,0-3-.86,3.83,3.83,0,0,0-3.3,3,3.64,3.64,0,0,0,0,1.47.5.5,0,0,1-.86.45,2.24,2.24,0,0,0-3.85,1.32.5.5,0,0,1-.61.46,3.2,3.2,0,0,0-1.84.12,3.32,3.32,0,0,0-2.2,2.91,3.19,3.19,0,0,0,.9,2.34,3.32,3.32,0,0,0,2.42,1h8.81a.5.5,0,0,1,.5.5.5.5,0,0,1-.5.5H49.92a4.4,4.4,0,0,1-3.14-1.33,4.18,4.18,0,0,1-1.18-3.08,4.33,4.33,0,0,1,4.73-4,3.23,3.23,0,0,1,4.55-2.1,4.69,4.69,0,0,1,.09-.73,4.9,4.9,0,0,1,7.89-2.76,4.73,4.73,0,0,1,1.55,2.3,4.48,4.48,0,0,1,7.3,3.37v.1a4.23,4.23,0,0,1-1.32,8.28Zm-9.66,0h-.36a.5.5,0,0,1-.5-.5.5.5,0,0,1,.5-.5h.36a.5.5,0,0,1,.5.5A.5.5,0,0,1,60.73,53.92Z" fill="#472b29"/><path d="M68.68,48.12h-.05a.25.25,0,0,1-.19-.3,1.84,1.84,0,0,1,.17-.48,2.79,2.79,0,0,1,3.72-1,.25.25,0,0,1,.12.33.25.25,0,0,1-.33.12,2.31,2.31,0,0,0-3.07.77,1.6,1.6,0,0,0-.12.37A.26.26,0,0,1,68.68,48.12Zm-5.16,5.8H62.41a.51.51,0,0,1-.5-.5.5.5,0,0,1,.5-.5h1.11a.5.5,0,0,1,.5.5A.5.5,0,0,1,63.52,53.92Z" fill="#472b29"/><path d="M64.5,36.68V33.75a.75.75,0,0,1,.75-.75h.4a.75.75,0,0,1,.75.75v2.93a.76.76,0,0,1-.75.75h-.4A.76.76,0,0,1,64.5,36.68Z" fill="#cbc9bc"/><path d="M65.65,37.8h-.4a1.12,1.12,0,0,1-1.12-1.12V33.75a1.13,1.13,0,0,1,1.12-1.13h.4a1.13,1.13,0,0,1,1.12,1.13v2.93A1.11,1.11,0,0,1,65.65,37.8Zm-.4-4.43a.37.37,0,0,0-.37.38v2.93a.37.37,0,0,0,.37.37h.4a.37.37,0,0,0,.37-.37V33.75a.37.37,0,0,0-.37-.38Z" fill="#472b29"/><path d="M59.82,73.2H45.13a5,5,0,0,1-5-5V33.25a5,5,0,0,1,5-5H59.82a5,5,0,0,1,5,5v35A5,5,0,0,1,59.82,73.2Z" fill="#e1e0d8"/><path d="M59.82,73.9H45.13a5.7,5.7,0,0,1-5.7-5.7V33.25a5.7,5.7,0,0,1,5.7-5.7H59.82a5.71,5.71,0,0,1,5.7,5.7v35A5.71,5.71,0,0,1,59.82,73.9ZM45.13,29a4.31,4.31,0,0,0-4.3,4.3v35a4.31,4.31,0,0,0,4.3,4.3H59.82a4.31,4.31,0,0,0,4.3-4.3V33.25a4.31,4.31,0,0,0-4.3-4.3Z" fill="#472b29"/><path d="M62.28,39.64v26h-19V34h19Z" fill="#c5def0"/><path d="M43,53.63a.38.38,0,0,1-.37-.37V33.63a.37.37,0,0,1,.37-.37H59.43a.37.37,0,0,1,.38.37.38.38,0,0,1-.38.38H43.35V53.26A.38.38,0,0,1,43,53.63Zm19,12H43a.38.38,0,0,1-.37-.37v-5.7a.38.38,0,1,1,.75,0v5.32H61.59V39.33a.38.38,0,1,1,.75,0v26A.38.38,0,0,1,62,65.66Z" fill="#472b29"/><path d="M52.15,67.18a1.59,1.59,0,1,0,1.59,1.59A1.59,1.59,0,0,0,52.15,67.18Z" fill="#cbc9bc"/><path d="M52.15,70.72a2,2,0,1,1,2-2A1.95,1.95,0,0,1,52.15,70.72Zm0-3.16a1.21,1.21,0,1,0,1.21,1.21A1.21,1.21,0,0,0,52.15,67.56ZM55,31.41H49.94a.32.32,0,0,1-.32-.31h0a.32.32,0,0,1,.32-.32H55a.32.32,0,0,1,.32.32h0A.31.31,0,0,1,55,31.41Zm7,4.49a.37.37,0,0,1-.38-.37v-1.9a.38.38,0,0,1,.75,0v1.9A.37.37,0,0,1,62,35.9Zm0,1.27a.35.35,0,0,1-.14,0,.32.32,0,0,1-.12-.08.25.25,0,0,1-.08-.12.35.35,0,0,1,0-.14.4.4,0,0,1,0-.15.42.42,0,0,1,.08-.12.38.38,0,0,1,.41-.08l.12.08.08.12a.4.4,0,0,1,0,.15.35.35,0,0,1,0,.14.25.25,0,0,1-.08.12A.39.39,0,0,1,62,37.17ZM43,58.7a.38.38,0,0,1-.37-.38V57.05a.38.38,0,0,1,.75,0v1.27A.38.38,0,0,1,43,58.7Z" fill="#472b29"/><path d="M45,44.24H59.9v4.25H45Z" fill="#fdfcee"/><path d="M59.9,48.81H45a.32.32,0,0,1-.32-.33V44.24a.32.32,0,0,1,.32-.32H59.9a.32.32,0,0,1,.33.32v4.24A.34.34,0,0,1,59.9,48.81Zm-14.53-.65H59.58V44.57H45.37Z" fill="#472b29"/><path d="M57.87,60.37H47.07a2,2,0,0,1-2-2v-.05a2,2,0,0,1,2-2h10.8a2,2,0,0,1,2,2v.05A2,2,0,0,1,57.87,60.37Z" fill="#f1bc19"/><path d="M57.87,60.67H47.07a2.36,2.36,0,0,1,0-4.71h10.8a2.36,2.36,0,0,1,0,4.71Zm-10.8-4.11a1.76,1.76,0,0,0,0,3.51h10.8a1.76,1.76,0,0,0,0-3.51ZM59.59,51h-3a.38.38,0,0,1,0-.75h3a.38.38,0,1,1,0,.75Zm-4.65,0H45a.38.38,0,0,1,0-.75h9.9a.38.38,0,1,1,0,.75Zm-4.11,2.5H45a.38.38,0,0,1,0-.75h5.78a.38.38,0,0,1,0,.75Zm5,0h-3.6a.38.38,0,1,1,0-.75h3.6a.38.38,0,1,1,0,.75Zm3.77,0H57.22a.38.38,0,1,1,0-.75h2.37a.38.38,0,1,1,0,.75Z" fill="#472b29"/><path d="M45.08,33.63H43l-1.07,5.43h0c0,.12,0,.26,0,.41h0a1.4,1.4,0,0,0,1.39,1.4h.25a1.52,1.52,0,0,0,1.52-1.4h0c0-.15,0-.29,0-.41h0Z" fill="#fdfcef"/><path d="M43.56,41.24h-.25a1.76,1.76,0,0,1-1.76-1.77c0-.16,0-.3,0-.43a.28.28,0,0,1,0-.13l1-5.35a.37.37,0,0,1,.37-.3h2.07a.37.37,0,0,1,.38.37v5.84A1.89,1.89,0,0,1,43.56,41.24Zm-1.25-2.08a3,3,0,0,0,0,.31,1,1,0,0,0,1,1h.25a1.15,1.15,0,0,0,1.15-1V34h-1.4l-1,5.12Z" fill="#472b29"/><path d="M48.06,33.63h-3V39h0c0,.13,0,.28,0,.43a1.48,1.48,0,0,0,1.47,1.48h.19a1.34,1.34,0,0,0,1.32-1.4c0-.15,0-.29,0-.41h0Z" fill="#78a0cf"/><path d="M46.74,41.24h-.19a1.84,1.84,0,0,1-1.84-1.85V33.63a.37.37,0,0,1,.37-.37h3a.37.37,0,0,1,.38.37v5.84A1.72,1.72,0,0,1,46.74,41.24Zm-1.28-2.36a.34.34,0,0,1,0,.1c0,.13,0,.26,0,.41a1.09,1.09,0,0,0,1.09,1.1h.19a1,1,0,0,0,.95-1V34H45.46v4.87Z" fill="#472b29"/><path d="M51,33.63h-3V39h0c0,.13,0,.28,0,.43a1.48,1.48,0,0,0,1.46,1.48h.2A1.34,1.34,0,0,0,51,39.47v-.41h0Z" fill="#fdfcef"/><path d="M49.72,41.24h-.2a1.84,1.84,0,0,1-1.83-1.85V33.63a.36.36,0,0,1,.37-.37h3a.36.36,0,0,1,.37.37v5.43a1.12,1.12,0,0,1,0,.26v.15A1.71,1.71,0,0,1,49.72,41.24Zm-1.28-2.36a.34.34,0,0,1,0,.1v.41a1.09,1.09,0,0,0,1.08,1.1h.19a1,1,0,0,0,.95-1v-.15a2.08,2.08,0,0,0,0-.25V34H48.43v4.87Z" fill="#472b29"/><path d="M54,33.63H51V39h0c0,.13,0,.28,0,.43a1.48,1.48,0,0,0,1.46,1.48h.2A1.35,1.35,0,0,0,54,39.46v-.4h0Z" fill="#78a0cf"/><path d="M52.69,41.24H52.5a1.84,1.84,0,0,1-1.83-1.85V33.63a.36.36,0,0,1,.37-.37h3a.36.36,0,0,1,.37.37v5.43a1.12,1.12,0,0,1,0,.26v.14A1.72,1.72,0,0,1,52.69,41.24Zm-1.27-2.36a.34.34,0,0,1,0,.1v.41a1.09,1.09,0,0,0,1.08,1.1h.19a1,1,0,0,0,1-1v-.15a1.92,1.92,0,0,0,0-.24V34H51.41v4.87Z" fill="#472b29"/><path d="M57,33.63H54V39h0v.28a1.56,1.56,0,0,0,1.46,1.63h.19A1.44,1.44,0,0,0,57,39.31v-.25h0V33.63Z" fill="#fdfcef"/><path d="M55.67,41.24h-.19a1.93,1.93,0,0,1-1.84-2V39a.09.09,0,0,1,0,0V33.63a.37.37,0,0,1,.38-.37h3a.37.37,0,0,1,.37.37v5.63A1.82,1.82,0,0,1,55.67,41.24Zm-1.28-2.33a.13.13,0,0,1,0,.06v.27a1.18,1.18,0,0,0,1.09,1.25h.19c.55,0,.95-.51.95-1.19V34H54.39Z" fill="#472b29"/><path d="M60,33.63H57V39h0c0,.13,0,.28,0,.43a1.48,1.48,0,0,0,1.47,1.48h.19A1.33,1.33,0,0,0,60,39.47c0-.15,0-.29,0-.41h0Z" fill="#78a0cf"/><path d="M58.65,41.24h-.19a1.85,1.85,0,0,1-1.84-1.85c0-.13,0-.24,0-.36a.15.15,0,0,1,0-.07V33.63a.37.37,0,0,1,.38-.37h3a.37.37,0,0,1,.38.37v5.84A1.72,1.72,0,0,1,58.65,41.24Zm-1.28-2.36a.34.34,0,0,1,0,.1c0,.13,0,.26,0,.41a1.09,1.09,0,0,0,1.09,1.1h.19a1,1,0,0,0,1-1V34H57.37Z" fill="#472b29"/><path d="M63,39.06h0L62,33.63H60V39h0c0,.13,0,.28,0,.43h0a1.48,1.48,0,0,0,1.47,1.48h.16A1.4,1.4,0,0,0,63,39.47h0C63,39.32,63,39.18,63,39.06Z" fill="#fdfcef"/><path d="M61.6,41.24h-.16a1.84,1.84,0,0,1-1.84-1.85V33.63a.37.37,0,0,1,.37-.37H62a.37.37,0,0,1,.37.31l1,5.42a.11.11,0,0,1,0,0c0,.13,0,.27,0,.43A1.77,1.77,0,0,1,61.6,41.24Zm-1.25-2.36a.34.34,0,0,1,0,.1c0,.13,0,.26,0,.41a1.09,1.09,0,0,0,1.09,1.1h.16a1,1,0,0,0,1-1c0-.14,0-.26,0-.37L61.72,34H60.35Z" fill="#472b29"/><path d="M63,39.59H42.1a.25.25,0,1,1,0-.5H63a.25.25,0,1,1,0,.5Z" fill="#472b29"/><path d="M55.51,53.28v17.2a3.12,3.12,0,0,0,3.22,3H70.29a3.12,3.12,0,0,0,3.23-3V53.28Z" fill="#78a0cf"/><path d="M70.29,74H58.73A3.61,3.61,0,0,1,55,70.48V53.28a.5.5,0,0,1,.5-.5h18a.51.51,0,0,1,.5.5v17.2A3.61,3.61,0,0,1,70.29,74ZM56,53.78v16.7A2.61,2.61,0,0,0,58.73,73H70.29A2.61,2.61,0,0,0,73,70.48V53.78Z" fill="#472b29"/><path d="M55.85,53.63H73.18V55.2H55.85Z" fill="#96c1ed"/><path d="M70,55.45H55.68a.25.25,0,1,1,0-.5H70a.25.25,0,0,1,0,.5Zm1.7,0h-1a.25.25,0,0,1,0-.5h1a.25.25,0,0,1,0,.5Zm1.48,0h-.68a.25.25,0,0,1,0-.5h.68a.25.25,0,0,1,0,.5Z" fill="#472b29"/><path d="M56,69.32V70.4a2.86,2.86,0,0,0,3,2.73H70a2.83,2.83,0,0,0,3-2.74V69.3Z" fill="#96c1ed"/><path d="M61.72,58.38a1,1,0,0,1-1.33.57,1.06,1.06,0,0,1-.56-1.36A1,1,0,0,1,61.16,57,1.06,1.06,0,0,1,61.72,58.38Z" fill="#4980b7"/><path d="M60.77,59.35a1.32,1.32,0,0,1-.51-.1,1.38,1.38,0,0,1-.73-1.78,1.33,1.33,0,0,1,.74-.75,1.29,1.29,0,0,1,1,0A1.38,1.38,0,0,1,62,58.5a1.33,1.33,0,0,1-.74.75A1.25,1.25,0,0,1,60.77,59.35Zm0-2.09a.58.58,0,0,0-.26.06.71.71,0,0,0-.39.39.74.74,0,0,0,.38.94.67.67,0,0,0,.52,0,.71.71,0,0,0,.39-.39.74.74,0,0,0-.38-.94A.65.65,0,0,0,60.78,57.26Z" fill="#472b29"/><path d="M68.59,56.94a1,1,0,1,0,1,1A1,1,0,0,0,68.59,56.94Z" fill="#4980b7"/><path d="M68.59,59.35a1.37,1.37,0,0,1,0-2.74,1.37,1.37,0,0,1,0,2.74Zm0-2.09a.72.72,0,1,0,.7.72A.72.72,0,0,0,68.59,57.26Zm3.06,12.59H57a.38.38,0,0,1-.38-.38A.37.37,0,0,1,57,69.1H71.65a.37.37,0,0,1,.38.37A.38.38,0,0,1,71.65,69.85Z" fill="#472b29"/><path d="M68.59,58.23a.25.25,0,0,1-.25-.25V53.41a3,3,0,0,0-2.68-3.18H63.71A3,3,0,0,0,61,53.41V58a.25.25,0,0,1-.25.25.25.25,0,0,1-.25-.25V53.41a3.46,3.46,0,0,1,3.18-3.68h1.95a3.46,3.46,0,0,1,3.18,3.68V58A.25.25,0,0,1,68.59,58.23Z" fill="#472b29"/></svg>