<svg id="Calque_1" data-name="Calque 1" xmlns="http://www.w3.org/2000/svg" width="100" height="100" viewBox="0 0 100 100"><title>Plan de travail 1</title><path d="M87.21,56.71A15.47,15.47,0,0,0,79,35v0a21,21,0,0,0-41.31-5.24A15,15,0,0,0,18.11,42.25,11.5,11.5,0,0,0,20.5,65L21,65c0,.17,0,.34,0,.52A20.49,20.49,0,0,0,57.43,78.39a12,12,0,0,0,19.23-2.91A11,11,0,0,0,87.21,56.71Z" fill="#c7ede6"/><path d="M32.4,80H22.5a.5.5,0,0,1,0-1h9.9a.5.5,0,1,1,0,1Z" fill="#fff"/><path d="M35.5,80h-1a.5.5,0,0,1,0-1h1a.5.5,0,0,1,0,1Z" fill="#fff"/><path d="M40.49,82h-9a.5.5,0,0,1,0-1h9a.5.5,0,1,1,0,1Z" fill="#fff"/><path d="M29.5,82h-1a.5.5,0,0,1,0-1h1a.5.5,0,0,1,0,1Z" fill="#fff"/><path d="M26.5,82h-2a.5.5,0,0,1,0-1h2a.5.5,0,0,1,0,1Z" fill="#fff"/><path d="M32.5,84h-2a.5.5,0,0,1,0-1h2a.5.5,0,0,1,0,1Z" fill="#fff"/><path d="M35.5,75h-1a.5.5,0,0,0,0,1h1a.5.5,0,0,0,0-1Z" fill="#fff"/><path d="M35.5,77h-5a.5.5,0,0,0,0,1h5a.5.5,0,0,0,0-1Z" fill="#fff"/><path d="M40.5,79h-3a.5.5,0,0,0,0,1h3a.5.5,0,0,0,0-1Z" fill="#fff"/><path d="M79.5,41h-10a.5.5,0,0,1,0-1h10a.5.5,0,0,1,0,1Z" fill="#fff"/><path d="M83.5,41h-2a.5.5,0,0,1,0-1h2a.5.5,0,0,1,0,1Z" fill="#fff"/><path d="M88.5,43h-10a.5.5,0,0,1,0-1h10a.5.5,0,0,1,0,1Z" fill="#fff"/><path d="M76.5,43h-1a.5.5,0,0,1,0-1h1a.5.5,0,0,1,0,1Z" fill="#fff"/><path d="M73.38,43H71.5a.5.5,0,0,1,0-1h1.88a.5.5,0,0,1,0,1Z" fill="#fff"/><path d="M82.5,39h-5a.5.5,0,0,1,0-1h5a.5.5,0,0,1,0,1Z" fill="#fff"/><path d="M79.5,45h-2a.5.5,0,0,1,0-1h2a.5.5,0,0,1,0,1Z" fill="#fff"/><path d="M45.67,36.94a4.46,4.46,0,0,0,1.61-2.81l3.53,4.49-1.26,1.63,13,16.5a2.5,2.5,0,0,0,.7-3l-2.1-4.37a21.74,21.74,0,0,0-2.49-4l-4.72-6L52.07,37l-6.18-7.86c-2-2.6-5.47-3.33-7.64-1.62S36,32.71,38,35.32,43.5,38.65,45.67,36.94Zm-6.18-7.86c1.3-1,3.46-.45,4.83,1.29s1.42,4,.11,5-3.46.45-4.83-1.28S38.19,30.1,39.49,29.08Z" fill="#a2b3cb"/><path d="M62.45,57.45,48.91,40.25l1.27-1.63-2.68-3.4A4.75,4.75,0,0,1,46,37.33a5.08,5.08,0,0,1-4.28.9,7.38,7.38,0,0,1-5.64-7.17,5.09,5.09,0,0,1,1.88-3.95c2.39-1.87,6.13-1.11,8.34,1.71L59,45a21.44,21.44,0,0,1,2.55,4.1l2.1,4.36a3,3,0,0,1-.84,3.65ZM50.18,40.24,62.58,56a2,2,0,0,0,.21-2.07l-2.1-4.37a21.34,21.34,0,0,0-2.44-3.91L45.5,29.44c-1.88-2.39-5-3.07-6.94-1.54a4.07,4.07,0,0,0-1.5,3.19,6.37,6.37,0,0,0,4.85,6.16,4,4,0,0,0,3.45-.71h0a3.91,3.91,0,0,0,1.43-2.49L47,32.94l4.46,5.68ZM42.9,36.37a3.85,3.85,0,0,1-1-.13,5.27,5.27,0,0,1-2.7-1.85c-1.53-2-1.55-4.51,0-5.7A3.15,3.15,0,0,1,42,28.2a5.52,5.52,0,0,1,3.87,4.92,3.17,3.17,0,0,1-1.14,2.64A2.89,2.89,0,0,1,42.9,36.37ZM41,29.07a2,2,0,0,0-1.23.4h0c-1.08.85-1,2.78.2,4.3a4.24,4.24,0,0,0,2.18,1.5,2,2,0,0,0,2.71-2.13,4.54,4.54,0,0,0-3.13-4A2.67,2.67,0,0,0,41,29.07Z" fill="#472b29"/><path d="M32.13,73.68a2.43,2.43,0,0,1-2.43-2.43V52.5a2.42,2.42,0,0,1,2.43-2.42H71.88A2.42,2.42,0,0,1,74.3,52.5V71.25a2.43,2.43,0,0,1-2.42,2.43Z" fill="#c0d078"/><path d="M71.88,50.78A1.72,1.72,0,0,1,73.6,52.5V71.25A1.72,1.72,0,0,1,71.88,73H32.13a1.72,1.72,0,0,1-1.73-1.72V52.5a1.72,1.72,0,0,1,1.73-1.72H71.88m0-1.4H32.13A3.12,3.12,0,0,0,29,52.5V71.25a3.13,3.13,0,0,0,3.13,3.13H71.88A3.13,3.13,0,0,0,75,71.25V52.5a3.12,3.12,0,0,0-3.12-3.12Z" fill="#472b29"/><path d="M71,56.75a3.5,3.5,0,0,1-3.5-3.5,4.23,4.23,0,0,1,0-.5H36.45a4.23,4.23,0,0,1,0,.5,3.5,3.5,0,0,1-3.5,3.5,4.23,4.23,0,0,1-.5,0V66.8a4.23,4.23,0,0,1,.5,0,3.5,3.5,0,0,1,3.5,3.5,4.23,4.23,0,0,1,0,.5h31.1a4.23,4.23,0,0,1,0-.5,3.5,3.5,0,0,1,3.5-3.5,4.23,4.23,0,0,1,.5,0V56.7A4.23,4.23,0,0,1,71,56.75Z" fill="#88ae45"/><circle cx="52.5" cy="61.75" r="6" fill="#c0d078"/><circle cx="41" cy="61.38" r="2.5" fill="#c0d078"/><path d="M41,64.13a2.75,2.75,0,1,1,2.75-2.75A2.75,2.75,0,0,1,41,64.13Zm0-5a2.25,2.25,0,1,0,2.25,2.25A2.25,2.25,0,0,0,41,59.13Z" fill="#472b29"/><circle cx="64" cy="61.38" r="2.5" fill="#c0d078"/><path d="M64,64.13a2.75,2.75,0,1,1,2.75-2.75A2.75,2.75,0,0,1,64,64.13Zm0-5a2.25,2.25,0,1,0,2.25,2.25A2.25,2.25,0,0,0,64,59.13Z" fill="#472b29"/><path d="M59.63,53.38H47.5a.5.5,0,0,1-.5-.5.5.5,0,0,1,.5-.5H59.63a.5.5,0,0,1,.5.5A.51.51,0,0,1,59.63,53.38Z" fill="#472b29"/><path d="M67.55,71.38H45.75a.5.5,0,0,1-.5-.5.5.5,0,0,1,.5-.5H67a4,4,0,0,1,4-4v-9a4,4,0,0,1-4-4H63.13a.5.5,0,0,1-.5-.5.5.5,0,0,1,.5-.5h4.42a.5.5,0,0,1,.38.17A.45.45,0,0,1,68,53a3.44,3.44,0,0,0,0,.43,3,3,0,0,0,3,3,2.21,2.21,0,0,0,.37,0,.59.59,0,0,1,.43.11.53.53,0,0,1,.2.38v10.1a.48.48,0,0,1-.17.37.49.49,0,0,1-.4.12,2.45,2.45,0,0,0-.43,0,3,3,0,0,0-3,3,2.58,2.58,0,0,0,0,.39.55.55,0,0,1-.11.41A.53.53,0,0,1,67.55,71.38Z" fill="#472b29"/><path d="M42.63,71.38H36.45a.51.51,0,0,1-.38-.18.48.48,0,0,1-.12-.4,2.27,2.27,0,0,0,0-.42,3,3,0,0,0-3-3,2.22,2.22,0,0,0-.37,0,.59.59,0,0,1-.43-.11.53.53,0,0,1-.2-.37V56.83a.49.49,0,0,1,.17-.38.49.49,0,0,1,.4-.12,2.58,2.58,0,0,0,.43.05,3,3,0,0,0,3-3,2.58,2.58,0,0,0,0-.4.55.55,0,0,1,.11-.41.52.52,0,0,1,.38-.19h2a.5.5,0,0,1,.5.5.5.5,0,0,1-.5.5H37a4,4,0,0,1-4,4v9a4,4,0,0,1,4,4h5.63a.5.5,0,0,1,.5.5A.51.51,0,0,1,42.63,71.38Z" fill="#472b29"/><path d="M66,35.31c2-2.6,1.95-6.09-.22-7.8s-5.59-1-7.64,1.62L52,37l-1.85,2.35-4.72,6a21.79,21.79,0,0,0-2.5,4l-2.1,4.37a2.5,2.5,0,0,0,.71,3L54.88,40.57,53.75,38l3-3.82a4.51,4.51,0,0,0,1.61,2.81C60.54,38.65,64,37.92,66,35.31Zm-1.57-1.23c-1.36,1.73-3.53,2.31-4.83,1.28s-1.25-3.26.12-5,3.53-2.32,4.83-1.29S65.81,32.34,64.44,34.08Z" fill="#a2b3cb"/><path d="M41.58,57.44l-.38-.3a3,3,0,0,1-.85-3.65l2.1-4.36A22,22,0,0,1,45,45L57.76,28.82a7.15,7.15,0,0,1,4.07-2.61,5,5,0,0,1,4.27.9c2.39,1.88,2.52,5.7.31,8.51h0a7.15,7.15,0,0,1-4.07,2.61,5.08,5.08,0,0,1-4.28-.9,4.83,4.83,0,0,1-1.52-2.11L54.33,38l1.13,2.63ZM63,27.08a5.11,5.11,0,0,0-1,.11,6.08,6.08,0,0,0-3.48,2.25L45.79,45.65a21.34,21.34,0,0,0-2.44,3.91l-2.1,4.37A2,2,0,0,0,41.47,56L54.29,40.49l-1.12-2.62,3.9-4.93.19,1.11a3.9,3.9,0,0,0,1.42,2.49,4.06,4.06,0,0,0,3.45.71A6.1,6.1,0,0,0,65.62,35h0c1.87-2.38,1.81-5.57-.14-7.1A3.86,3.86,0,0,0,63,27.08Zm-1.9,9.29a3,3,0,0,1-1.84-.61c-1.52-1.2-1.5-3.75,0-5.7s4-2.57,5.54-1.38,1.5,3.75,0,5.71h0A4.89,4.89,0,0,1,61.14,36.37ZM63,29.07a3.91,3.91,0,0,0-2.89,1.6c-1.2,1.52-1.29,3.45-.2,4.3s2.93.31,4.13-1.2,1.28-3.45.2-4.3A2,2,0,0,0,63,29.07Z" fill="#472b29"/><circle cx="52" cy="40.38" r="1" fill="#472b29"/><path d="M46.58,63.13a.25.25,0,0,1-.24-.21,6.09,6.09,0,0,1-.09-1,6.23,6.23,0,0,1,1.69-4.28.25.25,0,0,1,.36,0,.25.25,0,0,1,0,.35,5.71,5.71,0,0,0-1.56,3.94,6,6,0,0,0,.08.95.25.25,0,0,1-.21.29Z" fill="#472b29"/><path d="M52.5,68.13a6.25,6.25,0,0,1-5.74-3.78,6,6,0,0,1-.42-1.43.24.24,0,0,1,.2-.29.25.25,0,0,1,.29.2,5,5,0,0,0,.39,1.32,5.73,5.73,0,0,0,9,2.11.27.27,0,0,1,.36,0,.26.26,0,0,1,0,.36A6.28,6.28,0,0,1,52.5,68.13Z" fill="#472b29"/><path d="M57.77,65a.27.27,0,0,1-.12,0,.25.25,0,0,1-.1-.34,5.76,5.76,0,0,0-7.33-8,.23.23,0,0,1-.32-.13.25.25,0,0,1,.13-.33,6.27,6.27,0,0,1,8.72,5.75,6.24,6.24,0,0,1-.76,3A.27.27,0,0,1,57.77,65Z" fill="#472b29"/><path d="M18.38,45.63h-3.5a3.49,3.49,0,0,1-.45-7,3.29,3.29,0,0,1,0-.54,3.49,3.49,0,0,1,6.09-2.34,4,4,0,0,1,7.91.84,4.87,4.87,0,0,1-.06.55,2.49,2.49,0,0,1,4,1.5,3.31,3.31,0,0,1,.55,0,3.5,3.5,0,0,1,0,7h-7.5v.5h-7Z" fill="#fdfcef"/><path d="M16.63,41.13a.26.26,0,0,0,.25-.25,2.22,2.22,0,0,0-2.22-2.22,6.85,6.85,0,0,0-1.25.13.25.25,0,0,0,.13.49,5.28,5.28,0,0,1,1.12-.12,1.73,1.73,0,0,1,1.72,1.72A.25.25,0,0,0,16.63,41.13Z" fill="#472b29"/><circle cx="23.38" cy="45.63" r="0.5" fill="#472b29"/><path d="M14.88,46.13h3.5a.51.51,0,0,0,.5-.5.5.5,0,0,0-.5-.5h-3.5a3,3,0,0,1-.39-6,.5.5,0,0,0,.34-.2.51.51,0,0,0,.09-.38,3.41,3.41,0,0,1-.05-.46,3,3,0,0,1,3-3,2.94,2.94,0,0,1,2.22,1,.52.52,0,0,0,.5.14.5.5,0,0,0,.36-.38,3.5,3.5,0,0,1,6.92.74,2.85,2.85,0,0,1,0,.41.55.55,0,0,0,.24.54.48.48,0,0,0,.56,0,2,2,0,0,1,3.21,1.2.47.47,0,0,0,.56.4,3.73,3.73,0,0,1,.47,0,3,3,0,0,1,0,6h-7.5a.5.5,0,0,0-.5.5.51.51,0,0,0,.5.5h7.5a4,4,0,0,0,0-8H32.7a3,3,0,0,0-2.83-2,2.87,2.87,0,0,0-1,.18,4.5,4.5,0,0,0-8.64-1.41,4,4,0,0,0-2.35-.77,4,4,0,0,0-4,4,.71.71,0,0,0,0,.14,4,4,0,0,0,1,7.86Z" fill="#472b29"/><path d="M20.38,45.13h1a.5.5,0,0,1,.5.5.51.51,0,0,1-.5.5h-1a.5.5,0,0,1-.5-.5A.5.5,0,0,1,20.38,45.13Z" fill="#472b29"/><path d="M69.13,79.75H63a4.49,4.49,0,0,1-.44-9,3.19,3.19,0,0,1-.06-.54,4.48,4.48,0,0,1,8-2.76,5,5,0,0,1,10,.26A4.89,4.89,0,0,1,80.31,69a3.48,3.48,0,0,1,6.15,1.78,3.19,3.19,0,0,1,.54-.06,4.5,4.5,0,0,1,0,9H72.13v.5h-3Z" fill="#fdfcef"/><path d="M75.5,62.25a5.51,5.51,0,0,1,5.5,5.5v0a3.88,3.88,0,0,1,2-.55,4,4,0,0,1,3.86,3H87a5,5,0,0,1,0,10H72.13a.5.5,0,0,1,0-1H87a4,4,0,0,0,0-8c-.12,0-.23,0-.34,0l-.14,0h-.07a.5.5,0,0,1-.49-.43,3,3,0,0,0-5.26-1.52.5.5,0,0,1-.39.18.64.64,0,0,1-.23,0,.52.52,0,0,1-.25-.58A4.21,4.21,0,0,0,80,67.75a4.49,4.49,0,0,0-9-.24.51.51,0,0,1-.35.45.4.4,0,0,1-.15,0,.51.51,0,0,1-.4-.2A4,4,0,0,0,63,70.25c0,.12,0,.23,0,.34l0,.14a.51.51,0,0,1-.1.38.52.52,0,0,1-.34.18,4,4,0,0,0,.39,8h6.13a.5.5,0,0,1,0,1H63a5,5,0,0,1-1-9.88v-.12a5,5,0,0,1,8.18-3.84,5.49,5.49,0,0,1,5.32-4.16Z" fill="#472b29"/><path d="M77,69.25a3,3,0,0,1,2.91,2.34,2.37,2.37,0,0,1,3.57,1.73,2.36,2.36,0,0,1,.58-.07A2.94,2.94,0,0,1,87,76a.25.25,0,0,1-.23.27h0a.25.25,0,0,1-.25-.23,2.44,2.44,0,0,0-2.42-2.27,2.31,2.31,0,0,0-.74.13h-.06a.27.27,0,0,1-.26-.26,1.88,1.88,0,0,0-1.87-1.88,1.91,1.91,0,0,0-1.24.47.24.24,0,0,1-.16.07l-.09,0a.26.26,0,0,1-.16-.21A2.5,2.5,0,0,0,77,69.75a2.19,2.19,0,0,0-.68.11h-.07a.26.26,0,0,1-.24-.18.24.24,0,0,1,.17-.31,2.79,2.79,0,0,1,.82-.13Z" fill="#472b29"/><path d="M63.12,70.75A3,3,0,0,1,66,72.93a.25.25,0,0,1-.17.31h-.07a.25.25,0,0,1-.24-.18,2.5,2.5,0,0,0-2.39-1.82,1.87,1.87,0,0,0-.34,0h0a.24.24,0,0,1-.24-.21.25.25,0,0,1,.21-.29c.13,0,.27,0,.41,0Z" fill="#472b29"/></svg>