<svg id="Calque_1" data-name="Calque 1" xmlns="http://www.w3.org/2000/svg" width="100" height="100" viewBox="0 0 100 100"><title>Plan de travail 1</title><path d="M88.72,55.55a16.93,16.93,0,0,0,.8-1.95c2.63-7.77-1.35-17.07-9.73-19.32-.91-11.38-8.91-19.19-17.94-20.52-10.34-1.53-19.82,5-23,15.48a12.54,12.54,0,0,0-11,.86,13.63,13.63,0,0,0-4.33,3.23,15.07,15.07,0,0,0-3.65,7.5,11.29,11.29,0,0,0-2.18.48,10.65,10.65,0,0,0-7.29,8.92A13.28,13.28,0,0,0,11.38,57a10.37,10.37,0,0,0,11,6.31,1.13,1.13,0,0,1,.75.23,21.55,21.55,0,0,0,8.88,17c8.32,5.77,19,4,25.79-3.93a11.85,11.85,0,0,0,10.38,3.88,12.85,12.85,0,0,0,9.43-6.35,22.61,22.61,0,0,0,3.08.81c4,.44,7.32-1.17,9.73-4.8a10.66,10.66,0,0,0,1.79-6.36A11.06,11.06,0,0,0,88.72,55.55Z" fill="#c7ede6"/><path d="M18.39,47.58h-10a.5.5,0,0,1-.5-.5.5.5,0,0,1,.5-.5h10a.51.51,0,0,1,.5.5A.5.5,0,0,1,18.39,47.58Zm2.88,0H19.82a.5.5,0,0,1-.5-.5.51.51,0,0,1,.5-.5h1.45a.5.5,0,0,1,.5.5A.5.5,0,0,1,21.27,47.58Zm4.06,0H22.78a.5.5,0,0,1-.5-.5.5.5,0,0,1,.5-.5h2.55a.51.51,0,0,1,.5.5A.5.5,0,0,1,25.33,47.58Zm0,1.87H15.71a.5.5,0,1,1,0-1h9.62a.5.5,0,0,1,0,1ZM14,49.45H13.4a.5.5,0,1,1,0-1H14a.5.5,0,1,1,0,1Zm-2.38,0H10.14a.5.5,0,0,1,0-1H11.6a.5.5,0,1,1,0,1Zm9.14-3.73h-5a.5.5,0,0,1,0-1h5a.5.5,0,0,1,0,1Zm0-1.87H19.48a.5.5,0,0,1-.5-.5.5.5,0,0,1,.5-.5h1.26a.51.51,0,0,1,.5.5A.5.5,0,0,1,20.74,43.85Zm-3.27,7.46H15.71a.5.5,0,0,1-.5-.5.5.5,0,0,1,.5-.5h1.76a.51.51,0,0,1,.5.5A.5.5,0,0,1,17.47,51.31Z" fill="#fff"/><path d="M79.16,59.51H82.7a3.73,3.73,0,0,0,.79-7.4,3.87,3.87,0,0,0,0-.48,3.91,3.91,0,0,0-4-3.87,4,4,0,0,0-3.16,1.54,4.38,4.38,0,0,0-8.64-.48,4.21,4.21,0,0,0,0,1.66,2.77,2.77,0,0,0-2-.85,2.71,2.71,0,0,0-2.72,2.49,3.73,3.73,0,0,0-2.12.15,3.72,3.72,0,0,0,1.3,7.24h8.81m1.64,0h.36" fill="#fdfcef"/><path d="M82.7,60H79.16a.5.5,0,0,1,0-1H82.7a3.23,3.23,0,0,0,.69-6.41.5.5,0,0,1-.4-.55,3,3,0,0,0,0-.42,3.42,3.42,0,0,0-3.46-3.37,3.47,3.47,0,0,0-2.76,1.35.49.49,0,0,1-.53.17.5.5,0,0,1-.36-.44,3.73,3.73,0,0,0-1.37-2.6,4,4,0,0,0-3-.86,3.76,3.76,0,0,0-3.3,4.5.5.5,0,0,1-.85.45,2.24,2.24,0,0,0-1.64-.7,2.21,2.21,0,0,0-2.22,2,.49.49,0,0,1-.2.37.48.48,0,0,1-.4.09,3.23,3.23,0,0,0-1.85.12,3.32,3.32,0,0,0-2.19,2.91A3.18,3.18,0,0,0,59.81,58a3.34,3.34,0,0,0,2.42,1H71a.5.5,0,0,1,.5.5.5.5,0,0,1-.5.5H62.23a4.4,4.4,0,0,1-3.14-1.33,4.17,4.17,0,0,1-1.17-3.08,4.33,4.33,0,0,1,4.73-4.05,3.21,3.21,0,0,1,3.13-2.42,3.28,3.28,0,0,1,1.42.32,4.65,4.65,0,0,1,.08-.73A4.9,4.9,0,0,1,75.17,46a4.73,4.73,0,0,1,1.55,2.3,4.51,4.51,0,0,1,2.84-1A4.42,4.42,0,0,1,84,51.63v.1A4.23,4.23,0,0,1,82.7,60ZM73,60h-.35a.5.5,0,0,1,0-1H73a.5.5,0,0,1,0,1Z" fill="#472b29"/><path d="M81,54.21h-.06a.25.25,0,0,1-.19-.3,3.06,3.06,0,0,1,.17-.48,2.8,2.8,0,0,1,3.72-1,.24.24,0,0,1,.12.33.24.24,0,0,1-.33.12,2.29,2.29,0,0,0-3.06.77,1.82,1.82,0,0,0-.13.37A.25.25,0,0,1,81,54.21ZM75.84,60H74.73a.5.5,0,0,1,0-1h1.11a.5.5,0,0,1,0,1Z" fill="#472b29"/><path d="M71.57,21.31h-10a.5.5,0,0,1-.5-.5.5.5,0,0,1,.5-.5h10a.5.5,0,0,1,.5.5A.51.51,0,0,1,71.57,21.31Zm2.88,0H73a.51.51,0,0,1-.5-.5.5.5,0,0,1,.5-.5h1.45a.5.5,0,0,1,.5.5A.51.51,0,0,1,74.45,21.31Zm4,0H76a.5.5,0,0,1-.5-.5.5.5,0,0,1,.5-.5H78.5a.5.5,0,0,1,.5.5A.5.5,0,0,1,78.5,21.31Zm-2-3.73H66.86a.5.5,0,0,1-.5-.5.5.5,0,0,1,.5-.5h9.62a.5.5,0,0,1,.5.5A.51.51,0,0,1,76.48,17.58Zm-11.35,0h-.58a.5.5,0,0,1-.5-.5.5.5,0,0,1,.5-.5h.58a.5.5,0,0,1,0,1Zm-2.38,0H61.29a.51.51,0,0,1-.5-.5.5.5,0,0,1,.5-.5h1.46a.5.5,0,0,1,.5.5A.5.5,0,0,1,62.75,17.58Zm11.16,1.86h-5a.5.5,0,0,1-.5-.5.5.5,0,0,1,.5-.5h5a.5.5,0,0,1,.5.5A.5.5,0,0,1,73.91,19.44Z" fill="#fff"/><path d="M73.91,17.58H72.66a.5.5,0,0,1-.5-.5.5.5,0,0,1,.5-.5h1.25a.5.5,0,0,1,.5.5A.5.5,0,0,1,73.91,17.58Zm-6.48,1.86H65.67a.5.5,0,0,1-.5-.5.51.51,0,0,1,.5-.5h1.76a.5.5,0,0,1,.5.5A.5.5,0,0,1,67.43,19.44Z" fill="#fff"/><path d="M54.38,75.8a.51.51,0,0,1-.5-.5V51.56a.51.51,0,0,1,.5-.5.5.5,0,0,1,.5.5V75.3A.5.5,0,0,1,54.38,75.8Z" fill="#472b29"/><path d="M67.26,75.8H42.83a.5.5,0,0,1-.5-.5.5.5,0,0,1,.5-.5H67.26a2.68,2.68,0,0,0,2.67-2.67V59.51a.5.5,0,1,1,1,0V72.13A3.67,3.67,0,0,1,67.26,75.8Z" fill="#472b29"/><path d="M54.38,73.2a1.75,1.75,0,0,0,0,3.5h0a1.75,1.75,0,1,0,0-3.5Z" fill="#616493"/><path d="M54.38,77.07A2.13,2.13,0,1,1,56.51,75,2.12,2.12,0,0,1,54.38,77.07Zm0-3.5A1.38,1.38,0,1,0,55.76,75,1.37,1.37,0,0,0,54.38,73.57Z" fill="#472b29"/><path d="M53.2,61.07v1.79a1.18,1.18,0,0,0,2.36,0V61.07Z" fill="#f1bc19"/><path d="M54.38,64.54a1.68,1.68,0,0,1-1.68-1.68V61.07a.5.5,0,0,1,.5-.5h2.36a.5.5,0,0,1,.5.5v1.79A1.68,1.68,0,0,1,54.38,64.54Zm-.68-3v1.29a.68.68,0,1,0,1.36,0V61.57Z" fill="#472b29"/><path d="M70.51,44.78A4.81,4.81,0,0,1,74,40,18.15,18.15,0,0,0,71.52,34a4.75,4.75,0,0,1-5.8-.83c-1.71-1.69-1.85-3.71-.85-5.87a19.93,19.93,0,0,0-6-2.46,4.76,4.76,0,0,1-4.31,3.57c-2.59.19-4.27-1.15-5.16-3.55a20.2,20.2,0,0,0-6,2.49,4.91,4.91,0,0,1-6.65,6.71,20.13,20.13,0,0,0-2.43,6,4.91,4.91,0,0,1,.07,9.41A19.89,19.89,0,0,0,37,55.37,4.92,4.92,0,0,1,43.62,62a20.15,20.15,0,0,0,6,2.42.9.9,0,0,0,.07-.14,4.88,4.88,0,0,1,9.19-.11c.09.22.19.22.38.17a20.35,20.35,0,0,0,5.41-2.24l.26-.17a4.74,4.74,0,0,1,.59-5.39c1.66-1.93,3.74-2.21,6-1.23A19.62,19.62,0,0,0,74,49.36,4.79,4.79,0,0,1,70.51,44.78ZM54.18,48.09a3.47,3.47,0,1,1,3.48-3.37A3.48,3.48,0,0,1,54.18,48.09Z" fill="#bcbce2"/><path d="M49.54,65.09l-.13,0a20.6,20.6,0,0,1-6.15-2.51.69.69,0,0,1-.28-.87A4.23,4.23,0,0,0,37.23,56a.7.7,0,0,1-.88-.27,20.6,20.6,0,0,1-2.58-6.12.71.71,0,0,1,.42-.82c2.08-.8,3.07-2.16,3-4.15a4.08,4.08,0,0,0-3.07-3.95.7.7,0,0,1-.44-.81,20.77,20.77,0,0,1,2.51-6.18.7.7,0,0,1,.89-.27c2,.93,3.68.69,5.08-.73s1.59-3.05.65-5a.71.71,0,0,1,.26-.9,20.89,20.89,0,0,1,6.16-2.58.69.69,0,0,1,.82.44c.83,2.24,2.29,3.24,4.46,3.09a4.06,4.06,0,0,0,3.7-3.1.68.68,0,0,1,.82-.45,20.56,20.56,0,0,1,6.18,2.55.7.7,0,0,1,.27.89c-.93,2-.7,3.68.71,5.08a4,4,0,0,0,5,.68.69.69,0,0,1,.82.18,18.21,18.21,0,0,1,2.63,6.33.69.69,0,0,1-.44.73c-2.07.8-3.06,2.16-3,4.15h0a4.11,4.11,0,0,0,3,4,.7.7,0,0,1,.43.81,21,21,0,0,1-2.56,6.13.71.71,0,0,1-.87.28C69.1,55,67.38,55.35,66,57a4.06,4.06,0,0,0-.49,4.65.7.7,0,0,1-.26.87,2.4,2.4,0,0,1-.28.18A20.84,20.84,0,0,1,59.37,65a.94.94,0,0,1-1.2-.59,4.18,4.18,0,0,0-4-2.74h-.06a4.2,4.2,0,0,0-3.84,2.84,1.3,1.3,0,0,1-.08.17A.79.79,0,0,1,49.54,65.09Zm.06-.81h0Zm-5.11-2.61a20,20,0,0,0,4.68,1.9,5.56,5.56,0,0,1,10.16,0A19.81,19.81,0,0,0,64,61.62a5.58,5.58,0,0,1,7.22-7.2,19.48,19.48,0,0,0,1.94-4.65,5.58,5.58,0,0,1,0-10.24,21.52,21.52,0,0,0-1.91-4.66A5.58,5.58,0,0,1,64,27.6a19.09,19.09,0,0,0-4.66-1.92A5.59,5.59,0,0,1,49,25.7a19.38,19.38,0,0,0-4.66,1.95A5.57,5.57,0,0,1,37.1,35a20,20,0,0,0-1.9,4.68,5.56,5.56,0,0,1,.07,10.23,19.34,19.34,0,0,0,2,4.64,5.59,5.59,0,0,1,7.25,7.17Zm9.69-12.88h0a4.17,4.17,0,0,1-2.93-7.14,4.38,4.38,0,0,1,3-1.21,4.17,4.17,0,0,1,4.13,4.3,4.17,4.17,0,0,1-4.18,4Zm0-6.94a2.75,2.75,0,0,0-2,.8,2.71,2.71,0,0,0-.82,2,2.78,2.78,0,1,0,4.78-1.91,2.71,2.71,0,0,0-2-.84Z" fill="#472b29"/><path d="M66.78,41.57a12.92,12.92,0,0,0-15.7-9.23,12.77,12.77,0,0,0-9.33,15.54,12.92,12.92,0,0,0,15.7,9.23A12.77,12.77,0,0,0,66.78,41.57Zm-10,13a10.31,10.31,0,0,1-12.53-7.38A10.18,10.18,0,1,1,64,42.37,9.9,9.9,0,0,1,56.81,54.62Z" fill="#7878aa"/><path d="M54.23,55.24a10.37,10.37,0,1,1,2.56-.32A10.26,10.26,0,0,1,54.23,55.24Zm0-20.24a10.25,10.25,0,0,0-2.44.3,9.9,9.9,0,1,0,2.44-.3ZM42.05,40.57l-.09,0a.25.25,0,0,1-.15-.32A13.16,13.16,0,0,1,51,31.92a.25.25,0,0,1,.13.49,12.64,12.64,0,0,0-8.8,8A.25.25,0,0,1,42.05,40.57Z" fill="#472b29"/><path d="M54.5,57.64a14,14,0,0,1-4-.59,12.91,12.91,0,0,1-9-9.14.25.25,0,0,1,.18-.3.27.27,0,0,1,.31.18,12.38,12.38,0,0,0,8.7,8.78,12.52,12.52,0,0,0,12.18-2.63.24.24,0,0,1,.35,0,.25.25,0,0,1,0,.36A12.7,12.7,0,0,1,54.5,57.64Z" fill="#472b29"/><path d="M65.52,50.86a11.52,11.52,0,0,1-.89,1.41" fill="#a2a2cc"/><path d="M64.63,52.52a.24.24,0,0,1-.14-.05.25.25,0,0,1-.06-.35,11.47,11.47,0,0,0,.87-1.38.25.25,0,1,1,.44.24,13.81,13.81,0,0,1-.9,1.43A.26.26,0,0,1,64.63,52.52Z" fill="#472b29"/><path d="M66.78,47.53A11.72,11.72,0,0,1,66,49.79" fill="#a2a2cc"/><path d="M66,50a.18.18,0,0,1-.1,0,.26.26,0,0,1-.13-.33,12.44,12.44,0,0,0,.73-2.21.25.25,0,0,1,.3-.19.25.25,0,0,1,.19.3,13.19,13.19,0,0,1-.76,2.3A.24.24,0,0,1,66,50Zm.66-8.3a.26.26,0,0,1-.24-.19,12.61,12.61,0,0,0-8.11-8.83.26.26,0,0,1-.15-.32.26.26,0,0,1,.32-.16A13.18,13.18,0,0,1,67,41.43a.25.25,0,0,1-.19.3Z" fill="#472b29"/><path d="M58.79,35.51l3.43-.83" fill="#a2a2cc"/><path d="M58.79,35.63a.13.13,0,0,1-.13-.09.13.13,0,0,1,.1-.15l3.42-.83a.12.12,0,1,1,.06.24l-3.43.83Z" fill="#472b29"/><path d="M61.78,37.48l2.58-.43" fill="#a2a2cc"/><path d="M61.78,37.61a.14.14,0,0,1-.13-.11.12.12,0,0,1,.11-.14l2.57-.43a.13.13,0,1,1,0,.25l-2.58.42Z" fill="#472b29"/><path d="M63.45,40.13l2.62-.28" fill="#a2a2cc"/><path d="M63.45,40.25a.14.14,0,0,1-.13-.11.14.14,0,0,1,.12-.14l2.61-.28a.12.12,0,0,1,.14.11.12.12,0,0,1-.11.14l-2.62.28Z" fill="#472b29"/><path d="M49.28,32.9l.26,2.39" fill="#a2a2cc"/><path d="M49.54,35.42a.12.12,0,0,1-.12-.11l-.26-2.4a.12.12,0,0,1,.11-.14c.07,0,.13,0,.14.11l.26,2.4a.14.14,0,0,1-.11.14Z" fill="#472b29"/><path d="M46.74,34.24l.79,2.65" fill="#a2a2cc"/><path d="M47.53,37a.11.11,0,0,1-.12-.09l-.79-2.64a.13.13,0,0,1,.08-.16.13.13,0,0,1,.16.09l.79,2.64a.13.13,0,0,1-.09.16Z" fill="#472b29"/><path d="M44.19,36.58l1.55,2.31" fill="#a2a2cc"/><path d="M45.74,39a.12.12,0,0,1-.1,0l-1.56-2.31a.13.13,0,0,1,.21-.14l1.55,2.31a.12.12,0,0,1,0,.17Z" fill="#472b29"/><path d="M42.33,49.5,45,49.36" fill="#a2a2cc"/><path d="M42.33,49.63a.13.13,0,0,1-.13-.12.12.12,0,0,1,.12-.13L45,49.24c.07,0,.13,0,.14.11a.14.14,0,0,1-.12.14l-2.66.14Z" fill="#472b29"/><path d="M43.93,52.38l2.57-.77" fill="#a2a2cc"/><path d="M43.93,52.51a.12.12,0,0,1-.12-.09.12.12,0,0,1,.08-.16l2.58-.77a.13.13,0,0,1,.15.09.12.12,0,0,1-.08.15L44,52.5Z" fill="#472b29"/><path d="M46.69,54.79l2.18-1.12" fill="#a2a2cc"/><path d="M46.69,54.92a.15.15,0,0,1-.11-.07.13.13,0,0,1,.06-.17l2.17-1.12a.12.12,0,0,1,.17.06.12.12,0,0,1,0,.16L46.75,54.9A.11.11,0,0,1,46.69,54.92Z" fill="#472b29"/><path d="M50.24,56.45l1.61-1.54" fill="#a2a2cc"/><path d="M50.24,56.57a.12.12,0,0,1-.08-.21l1.6-1.54a.12.12,0,0,1,.18,0,.12.12,0,0,1,0,.17l-1.6,1.54A.16.16,0,0,1,50.24,56.57Z" fill="#472b29"/><path d="M54.07,57.38l1.24-2.33" fill="#a2a2cc"/><path d="M54.07,57.5H54a.13.13,0,0,1,0-.17L55.21,55a.13.13,0,0,1,.17-.05.13.13,0,0,1,0,.17l-1.25,2.33A.14.14,0,0,1,54.07,57.5Z" fill="#472b29"/><path d="M58.2,56.71l.19-2.44" fill="#a2a2cc"/><path d="M58.2,56.84h0a.14.14,0,0,1-.12-.14l.2-2.44a.15.15,0,0,1,.13-.12.14.14,0,0,1,.12.14l-.2,2.44A.12.12,0,0,1,58.2,56.84Z" fill="#472b29"/><path d="M52.33,31.87a12.61,12.61,0,0,1,2.38-.1" fill="#a2a2cc"/><path d="M52.33,32.12a.26.26,0,0,1-.25-.21.24.24,0,0,1,.22-.28,13.08,13.08,0,0,1,2.42-.11.25.25,0,0,1,.24.26.25.25,0,0,1-.27.24,13,13,0,0,0-2.33.1ZM31.84,59.91a.51.51,0,0,1-.5-.5V42.6a4.45,4.45,0,0,0-4.45-4.45H24.38a.5.5,0,0,1-.5-.5.5.5,0,0,1,.5-.5h2.51a5.45,5.45,0,0,1,5.45,5.45V59.41A.5.5,0,0,1,31.84,59.91Z" fill="#472b29"/><path d="M22.26,40.38a2.29,2.29,0,1,1,2.29-2.29A2.29,2.29,0,0,1,22.26,40.38Zm0-3.58a1.29,1.29,0,1,0,1.29,1.29A1.29,1.29,0,0,0,22.26,36.8Z" fill="#472b29"/><path d="M32.17,78.37H43.94a4.89,4.89,0,0,0,1-9.68,4.21,4.21,0,0,0,0-.62,5.06,5.06,0,0,0-9.1-3,5.58,5.58,0,0,0-11.05-.63,5.7,5.7,0,0,0,0,2.18,3.48,3.48,0,0,0-6,2.14,4.6,4.6,0,0,0-2.72.19,5,5,0,0,0-3.23,4.38,4.89,4.89,0,0,0,4.89,5.09H29" fill="#fdfcef"/><path d="M43.93,78.87H32.17a.51.51,0,0,1-.5-.5.5.5,0,0,1,.5-.5H43.94a4.39,4.39,0,0,0,.9-8.69.5.5,0,0,1-.4-.55,3.56,3.56,0,0,0,0-.57,4.56,4.56,0,0,0-8.2-2.74.49.49,0,0,1-.89-.26,5.14,5.14,0,0,0-1.85-3.55,5.09,5.09,0,0,0-8.22,3,5.32,5.32,0,0,0,0,2,.48.48,0,0,1-.26.54.5.5,0,0,1-.59-.1,3,3,0,0,0-5.17,1.83.53.53,0,0,1-.2.37.51.51,0,0,1-.41.09,4.2,4.2,0,0,0-2.43.16,4.46,4.46,0,0,0-2.9,3.94,4.39,4.39,0,0,0,4.38,4.57H29a.5.5,0,0,1,.5.5.5.5,0,0,1-.5.5H17.75a5.4,5.4,0,0,1-5.39-5.61,5.48,5.48,0,0,1,3.55-4.83,5.23,5.23,0,0,1,2.47-.3,4,4,0,0,1,5.85-2.67,6.42,6.42,0,0,1,.11-1.16,6.09,6.09,0,0,1,9.83-3.57,6.26,6.26,0,0,1,2,3.2,5.48,5.48,0,0,1,3.71-1.43,5.57,5.57,0,0,1,5.56,5.57v.24a5.39,5.39,0,0,1-1.55,10.56Z" fill="#472b29"/><path d="M29.34,67.6a3.16,3.16,0,0,0-3.48,2.79,3,3,0,0,0,0,.6,2.16,2.16,0,0,0-1.46-.7,2,2,0,0,0-2.16,1.62,3.11,3.11,0,0,0-.61-.1,2.77,2.77,0,0,0-3.05,2.44" fill="#fdfcef"/><path d="M18.61,74.5h0a.26.26,0,0,1-.24-.27,3,3,0,0,1,3.31-2.67,2.87,2.87,0,0,1,.41,0A2.27,2.27,0,0,1,24.45,70a2.36,2.36,0,0,1,1.16.39v-.06a3.41,3.41,0,0,1,3.75-3,.25.25,0,1,1,0,.5,2.92,2.92,0,0,0-3.21,2.55,2.63,2.63,0,0,0,0,.56.26.26,0,0,1-.14.26.26.26,0,0,1-.3-.06,1.91,1.91,0,0,0-1.29-.62A1.77,1.77,0,0,0,22.52,72a.25.25,0,0,1-.11.17.24.24,0,0,1-.2,0,2.82,2.82,0,0,0-.57-.09,2.5,2.5,0,0,0-2.77,2.21A.26.26,0,0,1,18.61,74.5Z" fill="#472b29"/><path d="M45.91,69.27a3.24,3.24,0,0,0-4.38,1.26,3.1,3.1,0,0,0-.21.58" fill="#fdfcef"/><path d="M41.32,71.36h0a.25.25,0,0,1-.19-.3,2.77,2.77,0,0,1,.22-.63A3.51,3.51,0,0,1,46,69a.25.25,0,0,1-.21.45,3,3,0,0,0-4.06,1.15,2.47,2.47,0,0,0-.18.52A.26.26,0,0,1,41.32,71.36Z" fill="#472b29"/></svg>